<?xml version="1.0" standalone="no"?>
<!DOCTYPE svg PUBLIC "-//W3C//DTD SVG 20010904//EN"
 "http://www.w3.org/TR/2001/REC-SVG-20010904/DTD/svg10.dtd">
<svg version="1.0" xmlns="http://www.w3.org/2000/svg"
 width="856.000000pt" height="333.000000pt" viewBox="0 0 856.000000 333.000000"
 preserveAspectRatio="xMidYMid meet">
<metadata>
Created by potrace 1.16, written by Peter Selinger 2001-2019
</metadata>
<g transform="translate(0.000000,333.000000) scale(0.100000,-0.100000)"
fill="#000000" stroke="none">
<path d="M302 2058 c3 -905 5 -988 21 -1043 42 -141 125 -271 224 -350 38 -30
204 -120 476 -256 l417 -209 408 204 c233 117 435 225 470 251 113 85 205 235
236 387 14 67 16 199 16 1038 l0 960 -1135 0 -1136 0 3 -982z m2218 95 l0
-828 -540 540 -540 540 -540 -540 -540 -540 0 828 0 827 1080 0 1080 0 0 -827z
m-4 -936 c3 -10 3 -35 -1 -55 l-7 -37 -534 540 -533 540 -541 -540 -540 -540
0 55 0 55 537 537 538 538 538 -537 c295 -296 540 -546 543 -556z m-20 -183
c-7 -27 -29 -6 -534 499 l-527 527 -525 -525 c-520 -520 -535 -533 -539 -482
-1 4 238 248 531 543 l532 535 534 -534 c505 -505 534 -536 528 -563z m-990
548 c14 -33 21 -39 62 -49 43 -10 49 -9 80 14 l33 24 43 -27 c42 -26 43 -29
38 -66 -4 -34 -1 -43 29 -74 30 -31 37 -34 74 -29 39 6 40 6 65 -39 l24 -45
-23 -31 c-21 -29 -22 -35 -11 -80 10 -43 16 -50 46 -60 35 -12 35 -12 32 -68
-3 -54 -4 -57 -35 -65 -29 -9 -33 -15 -44 -63 -12 -52 -11 -56 11 -79 l24 -26
-24 -45 c-25 -45 -26 -46 -66 -40 -37 5 -44 2 -78 -33 -20 -20 -35 -39 -33
-42 2 -2 7 -18 10 -36 6 -29 3 -34 -39 -58 -45 -26 -53 -26 -89 5 -19 16 -23
16 -69 1 -42 -14 -51 -21 -61 -51 -11 -33 -14 -35 -64 -38 l-52 -3 -16 40
c-14 35 -22 42 -62 54 -43 13 -48 12 -74 -10 -35 -28 -38 -28 -88 -1 -38 22
-39 25 -33 62 5 34 3 42 -31 76 -33 34 -39 37 -76 30 -38 -7 -39 -7 -64 37
-25 46 -25 54 6 88 16 18 17 25 6 69 -11 43 -17 51 -47 61 -34 11 -35 14 -38
68 l-3 56 38 11 c36 11 40 16 51 63 11 46 10 53 -7 71 -32 36 -32 44 -5 87 25
40 28 41 66 36 36 -5 44 -2 75 29 31 32 34 38 28 77 -6 42 -6 42 39 66 l45 23
32 -25 c28 -22 35 -23 73 -14 52 13 63 22 71 58 6 28 9 29 62 29 54 0 55 0 69
-38z"/>
<path d="M405 2225 c0 -444 4 -715 9 -715 6 0 235 227 510 505 276 278 505
505 511 505 5 0 241 -231 522 -512 l513 -513 0 723 0 722 -1032 0 -1033 0 0
-715z m348 594 l37 -30 0 -103 c0 -74 -4 -107 -15 -123 -23 -33 -155 -105
-193 -105 -18 0 -44 8 -59 17 -26 17 -26 18 -7 32 10 8 51 32 91 54 40 21 77
48 83 58 5 11 10 67 10 125 0 58 3 106 8 106 4 0 24 -14 45 -31z m166 -85 c-1
-71 3 -109 12 -120 7 -8 44 -34 83 -56 117 -68 113 -64 75 -84 -19 -9 -46 -17
-61 -16 -36 1 -151 66 -183 103 -22 27 -25 39 -25 114 0 46 4 95 10 109 10 27
67 69 82 60 5 -3 8 -52 7 -110z m1268 86 c62 -26 136 -101 165 -167 44 -100
30 -228 -35 -322 l-32 -46 -3 60 c-2 33 2 83 9 112 60 256 -254 421 -425 222
-50 -58 -60 -96 -51 -188 9 -99 13 -184 8 -194 -2 -4 -15 6 -29 22 -74 88 -91
228 -41 336 43 92 108 151 200 181 60 20 170 12 234 -16z m-172 -172 l25 -11
0 -179 0 -180 -32 8 c-41 10 -84 11 -125 2 l-33 -7 0 180 c0 177 0 180 23 189
32 13 112 12 142 -2z m224 -3 c7 -4 11 -69 11 -185 l0 -179 -32 7 c-42 9 -85
8 -126 -2 l-32 -8 2 183 3 183 25 8 c28 8 133 4 149 -7z m-1336 -167 c50 -27
87 -54 98 -73 19 -31 25 -80 11 -89 -4 -2 -46 18 -92 45 -47 26 -97 49 -112
49 -14 0 -65 -22 -113 -50 -48 -27 -88 -50 -91 -50 -9 0 -4 72 6 91 16 29 165
119 198 119 8 0 51 -19 95 -42z"/>
<path d="M1319 1426 c-74 -29 -116 -56 -162 -105 -70 -75 -101 -147 -105 -248
-5 -106 16 -177 78 -256 175 -229 525 -195 654 64 42 83 53 157 36 242 -24
125 -102 227 -215 282 -51 25 -73 30 -155 32 -62 2 -107 -2 -131 -11z m180
-58 c17 -18 37 -47 43 -65 12 -33 12 -33 79 -33 74 0 112 -20 123 -65 7 -27
-26 -116 -50 -136 -11 -9 -9 -17 11 -47 78 -118 41 -190 -95 -184 l-55 2 -19
-45 c-35 -87 -108 -111 -165 -55 -16 17 -36 47 -43 66 -12 35 -14 36 -54 30
-129 -17 -184 65 -115 172 27 42 29 49 16 67 -56 77 -64 135 -21 171 23 20 38
24 96 24 66 0 68 1 78 28 5 16 24 45 42 65 43 49 84 51 129 5z"/>
<path d="M1393 1348 c-11 -13 -28 -38 -37 -56 -17 -32 -17 -32 11 -44 36 -14
100 -15 135 0 25 10 26 14 17 41 -15 42 -54 81 -82 81 -13 0 -33 -10 -44 -22z"/>
<path d="M1164 1215 c-10 -15 -13 -32 -9 -47 10 -31 45 -88 54 -88 4 0 24 15
44 33 29 25 38 42 43 80 l6 47 -61 0 c-53 0 -62 -3 -77 -25z"/>
<path d="M1575 1193 c5 -38 14 -55 43 -80 21 -18 40 -33 44 -33 12 0 58 85 58
107 0 35 -31 53 -94 53 l-57 0 6 -47z"/>
<path d="M1380 1164 c-61 -34 -70 -49 -70 -111 0 -60 13 -79 79 -113 52 -26
53 -26 117 13 l55 32 -3 70 -3 70 -55 32 c-30 18 -59 33 -65 33 -5 0 -30 -12
-55 -26z m113 -66 c9 -11 17 -31 17 -45 0 -32 -42 -73 -75 -73 -28 0 -75 40
-75 64 0 75 85 111 133 54z"/>
<path d="M1183 996 c-12 -19 -25 -46 -29 -60 -12 -49 41 -82 112 -71 l41 6
-11 49 c-8 36 -21 58 -46 79 -19 17 -37 30 -40 30 -3 1 -15 -15 -27 -33z"/>
<path d="M1619 997 c-29 -25 -38 -42 -43 -79 l-7 -47 35 -6 c44 -9 103 10 111
36 4 10 3 29 0 42 -8 24 -47 87 -55 87 -3 -1 -21 -15 -41 -33z"/>
<path d="M1378 863 l-37 -15 24 -47 c42 -85 100 -85 143 -1 l22 45 -37 17
c-46 20 -67 20 -115 1z"/>
<path d="M3261 2937 c-19 -6 -54 -29 -77 -51 -52 -51 -72 -125 -54 -198 18
-69 46 -95 170 -156 129 -64 152 -89 128 -139 -28 -60 -125 -79 -220 -43 -28
11 -54 17 -57 15 -3 -3 -7 -32 -9 -64 l-4 -59 54 -12 c83 -19 233 -9 285 18
82 42 123 132 104 223 -20 90 -54 122 -189 174 -118 46 -148 102 -87 164 30
31 102 39 172 18 l51 -15 6 30 c14 70 9 86 -31 97 -48 14 -198 12 -242 -2z"/>
<path d="M3882 2936 c-162 -53 -248 -229 -213 -432 35 -196 158 -291 365 -282
109 5 168 29 233 95 65 67 87 135 87 268 0 133 -22 201 -87 268 -68 69 -124
91 -242 94 -65 2 -115 -2 -143 -11z m233 -127 c110 -74 127 -311 29 -419 -64
-70 -171 -80 -242 -23 -51 41 -69 77 -83 159 -23 130 26 254 115 295 55 26
132 21 181 -12z"/>
<path d="M4470 2687 c0 -330 11 -372 118 -435 45 -26 54 -27 172 -27 137 0
175 12 232 72 53 55 58 91 58 379 l0 264 -70 0 -70 0 0 -232 c-1 -270 -10
-316 -69 -355 -71 -48 -165 -22 -203 55 -22 44 -23 61 -26 290 l-4 242 -69 0
-69 0 0 -253z"/>
<path d="M5130 2885 l0 -54 103 -3 102 -3 3 -297 2 -298 70 0 70 0 0 300 0
300 98 0 c54 0 101 2 103 4 2 2 2 27 1 55 l-4 51 -274 0 -274 0 0 -55z"/>
<path d="M5760 2585 l0 -355 75 0 75 0 0 155 0 155 140 0 140 0 0 -155 0 -155
75 0 75 0 0 355 0 355 -75 0 -75 0 0 -145 0 -145 -140 0 -140 0 0 145 0 145
-75 0 -75 0 0 -355z"/>
<path d="M6490 2585 l0 -355 210 0 210 0 0 55 0 55 -140 0 -140 0 0 100 0 100
130 0 130 0 0 55 0 54 -127 3 -128 3 -3 88 -3 87 141 0 140 0 0 55 0 55 -210
0 -210 0 0 -355z"/>
<path d="M7040 2585 l0 -355 70 0 70 0 0 145 0 145 43 0 c23 0 52 -7 63 -15
13 -8 40 -64 70 -144 l49 -131 82 0 81 0 -62 151 c-34 83 -72 162 -84 176 -25
28 -27 33 -10 33 20 0 77 50 94 82 12 23 15 50 12 101 -4 66 -6 71 -44 107
-53 49 -105 60 -289 60 l-145 0 0 -355z m261 235 c49 -14 73 -43 72 -87 -2
-59 -38 -87 -123 -91 l-70 -4 0 96 0 96 43 0 c23 0 58 -5 78 -10z"/>
<path d="M7650 2585 l0 -355 70 0 70 0 2 263 3 262 134 -262 134 -263 89 0 88
0 0 355 0 355 -70 0 -70 0 0 -262 -1 -263 -132 260 -133 260 -92 3 -92 3 0
-356z"/>
<path d="M4393 1952 c-23 -3 -23 -5 -23 -168 l0 -164 95 0 c88 0 95 1 95 20 0
18 -7 20 -70 20 l-70 0 0 55 0 55 65 0 c58 0 65 2 65 20 0 18 -7 20 -65 20
l-65 0 0 50 0 50 70 0 c62 0 70 2 70 19 0 17 -9 20 -72 23 -40 2 -83 2 -95 0z"/>
<path d="M4981 1934 c-23 -19 -31 -34 -31 -59 0 -51 9 -64 60 -90 58 -29 80
-50 80 -75 0 -35 -29 -52 -84 -48 -46 3 -51 1 -54 -18 -7 -46 140 -38 173 9 8
12 15 40 15 62 0 47 -17 67 -87 105 -53 29 -64 57 -32 82 17 15 32 18 59 13
30 -5 39 -3 44 11 9 24 -10 34 -66 34 -36 0 -54 -6 -77 -26z"/>
<path d="M5683 1953 c-13 -2 -23 -7 -23 -9 0 -3 27 -45 60 -94 59 -88 60 -90
60 -160 0 -68 1 -70 25 -70 24 0 25 2 25 68 0 66 1 69 64 163 36 53 63 99 60
101 -2 3 -16 3 -30 0 -17 -3 -38 -25 -69 -73 -25 -38 -46 -69 -48 -69 -2 0
-25 34 -51 75 -26 41 -48 74 -49 74 -1 -1 -12 -4 -24 -6z"/>
<path d="M6266 1937 c-59 -34 -79 -67 -84 -140 -5 -101 47 -168 143 -182 64
-10 105 1 105 29 0 22 -3 23 -52 18 -63 -6 -110 16 -132 63 -55 116 47 226
167 180 13 -6 17 -2 17 18 0 30 -16 37 -78 37 -30 0 -61 -8 -86 -23z"/>
<path d="M6561 1938 c-55 -37 -74 -71 -79 -135 -3 -46 1 -67 20 -102 33 -65
67 -86 136 -85 107 0 162 58 162 170 0 107 -51 165 -149 172 -46 3 -62 0 -90
-20z m125 -33 c70 -29 87 -155 29 -215 -36 -37 -98 -41 -138 -9 -51 39 -59
139 -15 194 35 45 69 53 124 30z"/>
<path d="M7785 1953 c-35 -9 -87 -55 -102 -91 -21 -51 -13 -139 16 -180 34
-48 76 -66 151 -67 100 0 100 0 100 100 l0 85 -60 0 c-53 0 -60 -2 -60 -20 0
-16 7 -20 35 -20 l35 0 0 -50 0 -50 -50 0 c-43 0 -56 5 -86 33 -93 85 -23 239
101 223 23 -3 49 -8 58 -12 13 -5 17 -1 17 19 0 17 -7 26 -22 31 -26 7 -103 6
-133 -1z"/>
<path d="M3140 1820 l0 -130 34 -37 c31 -34 38 -37 89 -37 66 -1 106 23 124
75 7 19 12 85 12 147 1 112 1 112 -23 112 -24 0 -24 0 -28 -124 -4 -144 -14
-166 -78 -166 -69 0 -75 12 -78 159 l-4 131 -24 0 -24 0 0 -130z"/>
<path d="M3500 1786 l0 -166 25 0 24 0 3 133 3 132 73 -132 c68 -124 75 -133
103 -133 l29 0 0 165 c0 158 -1 165 -20 165 -19 0 -20 -7 -20 -127 0 -95 -3
-124 -11 -116 -7 7 -39 63 -73 125 -60 111 -62 113 -98 116 l-38 3 0 -165z"/>
<path d="M3870 1785 l0 -165 25 0 25 0 0 165 0 165 -25 0 -25 0 0 -165z"/>
<path d="M3990 1946 c0 -6 78 -217 105 -283 15 -38 21 -43 49 -43 31 0 31 0
92 163 47 125 58 163 47 165 -30 7 -41 -10 -88 -142 -27 -75 -51 -134 -53
-131 -2 2 -26 64 -52 137 -43 122 -49 133 -73 136 -15 2 -27 1 -27 -2z"/>
<path d="M4650 1785 c0 -157 1 -165 20 -165 17 0 19 8 22 73 3 67 5 72 26 75
33 5 51 -14 84 -85 24 -53 32 -63 54 -63 31 0 28 14 -20 106 l-32 61 28 25
c36 33 38 79 3 113 -22 22 -32 25 -105 25 l-80 0 0 -165z"/>
<path d="M5340 1930 c0 -18 7 -20 55 -20 l55 0 0 -145 0 -145 25 0 25 0 0 145
0 145 50 0 c43 0 50 3 50 20 0 19 -7 20 -130 20 -123 0 -130 -1 -130 -20z"/>
<path d="M6890 1785 l0 -165 95 0 c88 0 95 1 95 20 0 18 -7 20 -70 20 l-70 0
0 145 0 145 -25 0 -25 0 0 -165z"/>
<path d="M7150 1785 l0 -165 95 0 c88 0 95 1 95 20 0 18 -7 20 -70 20 l-70 0
0 145 0 145 -25 0 -25 0 0 -165z"/>
<path d="M7410 1785 l0 -165 95 0 c88 0 95 1 95 20 0 18 -7 20 -70 20 l-70 0
0 55 0 55 65 0 c58 0 65 2 65 20 0 16 -8 19 -62 22 l-63 3 -3 48 -3 47 70 0
c64 0 71 2 71 20 0 19 -7 20 -95 20 l-95 0 0 -165z"/>
<path d="M8050 1785 l0 -165 95 0 c88 0 95 1 95 20 0 18 -7 20 -70 20 l-70 0
0 55 0 55 65 0 c58 0 65 2 65 20 0 16 -8 19 -62 22 l-63 3 -3 48 -3 47 70 0
c64 0 71 2 71 20 0 19 -7 20 -95 20 l-95 0 0 -165z"/>
<path d="M3140 1350 c0 -7 857 -10 2550 -10 1693 0 2550 3 2550 10 0 7 -857
10 -2550 10 -1693 0 -2550 -3 -2550 -10z"/>
<path d="M3383 1049 c-6 -6 -9 -26 -6 -43 4 -25 -3 -47 -27 -89 -27 -47 -36
-57 -59 -57 -15 0 -36 -7 -47 -15 -10 -8 -26 -15 -36 -15 -20 0 -26 -16 -20
-48 4 -19 9 -23 28 -18 13 3 35 9 49 12 36 9 33 -19 -6 -48 -17 -13 -49 -40
-72 -60 l-42 -37 0 -91 c0 -89 1 -93 29 -117 37 -32 58 -17 34 25 -24 41 -32
108 -18 143 11 26 74 69 102 69 15 0 8 -22 -14 -39 -33 -28 -18 -55 27 -47 27
5 35 4 35 -7 0 -17 -21 -27 -55 -27 -34 0 -53 -37 -31 -58 12 -13 18 -13 28
-4 18 18 58 15 64 -5 3 -10 8 -24 10 -32 7 -21 25 0 26 30 2 32 26 59 52 59
12 0 32 9 46 20 23 19 24 21 7 34 -9 7 -28 11 -42 8 -36 -6 -31 13 10 37 36
21 43 39 24 58 -20 20 -4 40 28 36 34 -5 58 -49 50 -91 -3 -15 -10 -53 -15
-84 -17 -91 -55 -144 -77 -108 -3 5 -13 10 -21 10 -24 0 -17 -58 11 -86 40
-40 72 -13 114 99 12 32 29 73 38 90 9 18 15 48 15 67 -2 46 -24 130 -34 130
-4 0 -32 11 -62 25 -64 29 -69 30 -101 9 -13 -8 -33 -14 -44 -12 l-20 3 20 32
c17 28 28 33 90 44 58 10 73 17 81 35 18 38 -4 54 -62 47 l-48 -6 5 42 c5 35
2 46 -17 66 -26 28 -31 30 -47 14z"/>
<path d="M6030 1024 c-6 -14 -10 -33 -10 -43 0 -28 -29 -91 -41 -91 -6 0 -13
9 -16 19 -5 20 -29 35 -43 26 -7 -4 -3 -128 6 -172 5 -26 39 -39 59 -23 9 7
15 30 15 51 0 28 4 39 15 39 19 0 20 -67 2 -91 -7 -10 -37 -24 -67 -33 -66
-20 -100 -50 -100 -88 0 -41 31 -37 84 12 24 22 50 40 58 40 9 0 21 7 28 15 7
8 22 15 34 15 12 0 26 4 32 9 17 15 103 33 129 27 18 -5 25 -13 25 -31 0 -22
4 -25 39 -25 38 0 51 11 51 46 0 19 -63 44 -117 46 -24 1 -46 5 -49 10 -3 4
-15 1 -27 -7 -44 -31 -50 -14 -11 29 23 24 28 26 36 12 6 -11 23 -16 58 -16
54 0 60 7 30 33 -24 20 -19 37 20 66 38 28 38 48 0 56 -16 4 -30 10 -30 15 0
16 -31 40 -51 40 -16 0 -19 -7 -19 -54 0 -51 -2 -56 -36 -76 -19 -12 -38 -19
-41 -16 -4 3 -8 40 -9 82 -3 96 -32 137 -54 78z"/>
<path d="M6905 1013 c-8 -43 -35 -123 -43 -123 -2 0 -15 12 -28 26 -13 14 -28
23 -33 20 -14 -9 -7 -172 8 -190 29 -34 80 -2 67 42 -7 22 8 47 23 38 13 -8 5
-73 -12 -94 -5 -7 -35 -19 -65 -28 -64 -19 -105 -54 -100 -87 5 -37 39 -32 85
13 23 22 49 40 56 40 8 0 20 7 27 15 7 8 24 15 39 15 15 0 31 4 37 8 5 5 28
15 52 22 54 17 96 5 98 -28 2 -31 8 -35 43 -27 32 7 57 38 45 56 -11 18 -71
39 -111 39 -21 0 -44 4 -52 9 -9 6 -19 4 -28 -5 -18 -18 -33 -18 -33 -1 0 14
41 57 53 57 4 0 7 -7 7 -15 0 -11 12 -15 50 -15 51 0 61 8 35 30 -24 20 -17
43 20 68 43 27 45 48 6 57 -16 3 -37 17 -45 31 -19 27 -51 32 -60 8 -3 -9 -6
-36 -6 -60 0 -31 -4 -44 -14 -44 -7 0 -19 -7 -26 -15 -7 -8 -19 -15 -26 -15
-11 0 -14 19 -14 85 0 73 -3 86 -19 95 -28 15 -29 14 -36 -27z"/>
<path d="M5153 1013 c-9 -3 -13 -33 -13 -103 l0 -99 -32 -25 c-18 -13 -51 -31
-73 -40 -74 -31 -88 -62 -44 -102 22 -19 83 -21 105 -3 22 18 17 0 -22 -70
-44 -81 -81 -121 -110 -121 -25 0 -54 -34 -54 -62 0 -30 39 -21 86 21 54 48
91 97 135 181 32 61 33 62 48 42 93 -121 153 -189 194 -219 42 -31 56 -36 100
-34 46 1 66 12 67 34 0 4 -17 15 -37 23 -108 45 -303 224 -303 278 0 9 15 25
33 36 17 10 37 23 42 27 6 5 18 12 28 16 22 8 31 31 23 62 -10 40 -39 49 -86
25 l-40 -20 0 69 c0 57 -3 72 -17 79 -10 5 -24 7 -30 5z"/>
<path d="M4415 900 c-16 -11 -44 -20 -62 -20 -17 0 -35 -4 -38 -10 -3 -5 -18
-10 -33 -10 -15 0 -36 -6 -47 -14 -11 -7 -38 -16 -60 -19 -109 -18 -120 -22
-123 -45 -2 -14 3 -25 13 -28 15 -6 82 7 163 32 19 5 22 3 22 -19 0 -13 -6
-29 -13 -35 -7 -6 -24 -34 -37 -62 -13 -27 -27 -50 -32 -50 -4 0 -8 -7 -8 -15
0 -22 -28 -73 -63 -118 -28 -34 -29 -39 -15 -53 24 -25 50 -4 86 69 18 36 32
70 32 76 0 6 11 29 25 51 14 22 25 46 25 53 0 22 44 57 72 57 15 0 34 -7 43
-17 42 -42 -23 -263 -77 -263 -11 0 -18 8 -18 19 0 31 -18 34 -35 7 -10 -15
-15 -40 -13 -67 2 -36 8 -46 34 -61 30 -18 31 -18 72 13 24 17 45 42 48 57 4
15 12 38 19 52 32 65 47 137 40 191 -9 70 -35 99 -87 99 -35 0 -39 3 -36 22 2
17 14 24 58 34 30 7 69 13 87 14 44 0 62 31 33 60 -25 25 -37 25 -75 0z"/>
<path d="M8001 898 c-19 -5 -44 -16 -55 -24 -11 -8 -37 -14 -57 -14 -43 0 -52
-10 -70 -68 -23 -79 4 -73 123 23 39 32 66 45 82 40 9 -3 23 -7 32 -10 13 -4
14 -8 4 -20 -20 -24 33 -20 54 4 24 27 13 54 -27 69 -38 14 -40 14 -86 0z"/>
<path d="M7688 865 c-48 -32 -70 -66 -66 -102 3 -25 8 -28 42 -31 36 -3 38 -5
33 -30 -3 -15 -11 -77 -18 -138 -10 -93 -10 -116 2 -142 16 -36 38 -41 56 -12
10 15 10 34 -1 92 -21 114 4 259 49 280 27 12 37 48 21 80 -17 33 -70 34 -118
3z"/>
<path d="M6088 693 c-32 -16 -34 -29 -13 -69 25 -49 19 -61 -40 -89 -61 -28
-78 -51 -51 -70 19 -15 50 -9 67 11 6 8 22 14 36 14 21 0 24 -4 21 -32 -2 -26
-8 -34 -27 -36 -13 -2 -28 1 -34 7 -6 6 -19 11 -29 11 -14 0 -18 -8 -18 -33 0
-28 5 -36 35 -50 47 -22 57 -21 83 6 22 23 30 49 31 103 1 27 6 32 42 44 22 8
47 23 55 34 12 17 11 22 -3 38 -12 14 -25 16 -54 12 -36 -6 -39 -5 -39 16 0
13 7 31 16 41 14 15 13 19 -12 38 -30 24 -30 24 -66 4z"/>
<path d="M6968 697 c-34 -13 -43 -35 -24 -56 7 -9 17 -31 21 -49 5 -26 3 -33
-12 -38 -68 -23 -103 -47 -103 -70 0 -21 5 -24 34 -24 21 0 36 6 40 15 3 9 18
15 36 15 31 0 38 -17 24 -54 -7 -18 -49 -22 -59 -6 -8 13 -42 13 -50 -1 -21
-32 32 -89 83 -89 32 0 57 38 62 97 5 55 5 56 50 73 53 21 70 42 54 68 -8 12
-24 17 -55 17 -41 0 -44 2 -41 25 1 13 8 27 14 32 9 5 6 14 -12 32 -26 29 -24
28 -62 13z"/>
<path d="M8006 685 c-8 -8 -27 -15 -43 -15 -15 0 -41 -9 -58 -20 -16 -11 -39
-20 -51 -20 -11 0 -31 -11 -44 -25 -20 -22 -21 -25 -6 -31 9 -3 32 1 52 11 27
12 39 14 47 6 8 -8 8 -16 2 -25 -6 -7 -27 -35 -47 -62 -21 -27 -38 -52 -38
-56 0 -4 10 -10 21 -13 17 -6 29 0 51 24 37 40 48 39 48 -3 0 -51 8 -65 51
-86 62 -32 169 -21 215 22 41 37 40 148 -1 148 -23 0 -45 -30 -45 -61 0 -35
-27 -49 -94 -49 -62 0 -70 14 -61 104 6 64 10 77 36 102 36 35 39 64 5 64 -14
0 -31 -7 -40 -15z"/>
</g>
</svg>
